# xmcd CD database file
#
# Track frame offsets:
#	150
#	21370
#	46220
#	66732
#	87172
#	107617
#	125022
#	146125
#	166550
#	186190
#
# Disc length: 2690 seconds
#
# Revision: 4
# Processed by: cddbd v1.5.2PL0 Copyright (c) Steve Scherf et al.
# Submitted via: CDex 1.70beta2
#
DISCID=8b0a800a
DTITLE=Michael Bolton - Time, Love and Tenderness
DYEAR=1991
DGENRE=Pop
TTITLE0=Love Is A Wonderful Thing
TTITLE1=Time, Love And Tenderness
TTITLE2=Missing You Now
TTITLE3=Forever Isn't Long Enough
TTITLE4=Now That I Found You
TTITLE5=When A Man Loves A Woman
TTITLE6=We're Not Makin' Love Anymore
TTITLE7=New Love
TTITLE8=Save Me
TTITLE9=Steel Bars
EXTD=YEAR: 1991
EXTT0=
EXTT1=
EXTT2=Featuring Kenny G
EXTT3=
EXTT4=
EXTT5=
EXTT6=Duet with Patti LaBelle
EXTT7=
EXTT8=
EXTT9=
PLAYORDER=
